/* XPM */
static char *examples3[] = {
/* columns rows colors chars-per-pixel */
"64 64 256 2 ",
"   c black",
".  c blue",
"X  c green",
"o  c red",
"O  c cyan",
"+  c yellow",
"@  c magenta",
"#  c white",
"$  c #7B7B7B",
"%  c #7B7B7B",
"&  c #7B7B7B",
"*  c #7B7B7B",
"=  c #7B7B7B",
"-  c #7B7B7B",
";  c #7B7B7B",
":  c #7B7B7B",
">  c #7B7B7B",
",  c #7B7B7B",
"<  c #7B7B7B",
"1  c #7B7B7B",
"2  c #7B7B7B",
"3  c #7B7B7B",
"4  c #7B7B7B",
"5  c #7B7B7B",
"6  c #7B7B7B",
"7  c #7B7B7B",
"8  c #7B7B7B",
"9  c #7B7B7B",
"0  c #7B7B7B",
"q  c #7B7B7B",
"w  c #7B7B7B",
"e  c #7B7B7B",
"r  c #7B7B7B",
"t  c #7B7B7B",
"y  c #7B7B7B",
"u  c #7B7B7B",
"i  c #7B7B7B",
"p  c #7B7B7B",
"a  c #7B7B7B",
"s  c #7B7B7B",
"d  c #7B7B7B",
"f  c #7B7B7B",
"g  c #7B7B7B",
"h  c #7B7B7B",
"j  c #7B7B7B",
"k  c #7B7B7B",
"l  c #7B7B7B",
"z  c #7B7B7B",
"x  c #7B7B7B",
"c  c #7B7B7B",
"v  c #7B7B7B",
"b  c #7B7B7B",
"n  c #7B7B7B",
"m  c #7B7B7B",
"M  c #7B7B7B",
"N  c #7B7B7B",
"B  c #7B7B7B",
"V  c #7B7B7B",
"C  c #7B7B7B",
"Z  c #7B7B7B",
"A  c #7B7B7B",
"S  c #7B7B7B",
"D  c #7B7B7B",
"F  c #7B7B7B",
"G  c #7B7B7B",
"H  c #7B7B7B",
"J  c #7B7B7B",
"K  c #7B7B7B",
"L  c #7B7B7B",
"P  c #7B7B7B",
"I  c #7B7B7B",
"U  c #7B7B7B",
"Y  c #7B7B7B",
"T  c #7B7B7B",
"R  c #7B7B7B",
"E  c #7B7B7B",
"W  c #7B7B7B",
"Q  c #7B7B7B",
"!  c #7B7B7B",
"~  c #7B7B7B",
"^  c #7B7B7B",
"/  c #7B7B7B",
"(  c #7B7B7B",
")  c #7B7B7B",
"_  c #7B7B7B",
"`  c #7B7B7B",
"'  c #7B7B7B",
"]  c #7B7B7B",
"[  c #7B7B7B",
"{  c #7B7B7B",
"}  c #7B7B7B",
"|  c #7B7B7B",
" . c #7B7B7B",
".. c #7B7B7B",
"X. c #7B7B7B",
"o. c #7B7B7B",
"O. c #7B7B7B",
"+. c #7B7B7B",
"@. c #7B7B7B",
"#. c #7B7B7B",
"$. c #7B7B7B",
"%. c #7B7B7B",
"&. c #7B7B7B",
"*. c #7B7B7B",
"=. c #7B7B7B",
"-. c #7B7B7B",
";. c #7B7B7B",
":. c #7B7B7B",
">. c #7B7B7B",
",. c #7B7B7B",
"<. c #7B7B7B",
"1. c #7B7B7B",
"2. c #7B7B7B",
"3. c #7B7B7B",
"4. c #7B7B7B",
"5. c #7B7B7B",
"6. c #7B7B7B",
"7. c #7B7B7B",
"8. c #7B7B7B",
"9. c #7B7B7B",
"0. c #7B7B7B",
"q. c #7B7B7B",
"w. c #7B7B7B",
"e. c #7B7B7B",
"r. c #7B7B7B",
"t. c #7B7B7B",
"y. c #7B7B7B",
"u. c #7B7B7B",
"i. c #7B7B7B",
"p. c #7B7B7B",
"a. c #7B7B7B",
"s. c #7B7B7B",
"d. c #7B7B7B",
"f. c #7B7B7B",
"g. c #7B7B7B",
"h. c #7B7B7B",
"j. c #7B7B7B",
"k. c #7B7B7B",
"l. c #7B7B7B",
"z. c #7B7B7B",
"x. c #7B7B7B",
"c. c #7B7B7B",
"v. c #7B7B7B",
"b. c #7B7B7B",
"n. c #7B7B7B",
"m. c #7B7B7B",
"M. c #7B7B7B",
"N. c #7B7B7B",
"B. c #7B7B7B",
"V. c #7B7B7B",
"C. c #7B7B7B",
"Z. c #7B7B7B",
"A. c #7B7B7B",
"S. c #7B7B7B",
"D. c #7B7B7B",
"F. c #7B7B7B",
"G. c #7B7B7B",
"H. c #7B7B7B",
"J. c #7B7B7B",
"K. c #7B7B7B",
"L. c #7B7B7B",
"P. c #7B7B7B",
"I. c #7B7B7B",
"U. c #7B7B7B",
"Y. c #7B7B7B",
"T. c #7B7B7B",
"R. c #7B7B7B",
"E. c #7B7B7B",
"W. c #7B7B7B",
"Q. c #7B7B7B",
"!. c #7B7B7B",
"~. c #7B7B7B",
"^. c #7B7B7B",
"/. c #7B7B7B",
"(. c #7B7B7B",
"). c #7B7B7B",
"_. c #7B7B7B",
"`. c #7B7B7B",
"'. c #7B7B7B",
"]. c #7B7B7B",
"[. c #7B7B7B",
"{. c #7B7B7B",
"}. c #7B7B7B",
"|. c #7B7B7B",
" X c #7B7B7B",
".X c #7B7B7B",
"XX c #7B7B7B",
"oX c #7B7B7B",
"OX c #7B7B7B",
"+X c #7B7B7B",
"@X c #7B7B7B",
"#X c #7B7B7B",
"$X c #7B7B7B",
"%X c #7B7B7B",
"&X c #7B7B7B",
"*X c #7B7B7B",
"=X c #7B7B7B",
"-X c #7B7B7B",
";X c #7B7B7B",
":X c #7B7B7B",
">X c #7B7B7B",
",X c #7B7B7B",
"<X c #7B7B7B",
"1X c #7B7B7B",
"2X c #7B7B7B",
"3X c #7B7B7B",
"4X c #7B7B7B",
"5X c #7B7B7B",
"6X c #7B7B7B",
"7X c #7B7B7B",
"8X c #7B7B7B",
"9X c #7B7B7B",
"0X c #7B7B7B",
"qX c #7B7B7B",
"wX c #7B7B7B",
"eX c #7B7B7B",
"rX c #7B7B7B",
"tX c #7B7B7B",
"yX c #7B7B7B",
"uX c #7B7B7B",
"iX c #AC6218",
"pX c #9C3100",
"aX c #FFC518",
"sX c #8B0000",
"dX c #00007B",
"fX c #10109C",
"gX c #2973EE",
"hX c #A40000",
"jX c #BD5200",
"kX c #D583F6",
"lX c #7B109C",
"zX c #41C5F6",
"xX c #EE9400",
"cX c #B410DE",
"vX c #319CEE",
"bX c #DE0000",
"nX c #0829DE",
"mX c #08AC08",
"MX c #C54AEE",
"NX c #52EEFF",
"BX c #D57300",
"VX c #EE0000",
"CX c #0000BD",
"ZX c #FFB400",
"AX c #CD0000",
"SX c #AC4100",
"DX c #1852E6",
"FX c #A45A10",
"GX c #730000",
"HX c #00D500",
"JX c #DE9418",
"KX c #EEACFF",
"LX c #9410BD",
"PX c #008300",
"IX c #BD0000",
"UX c #00008B",
/* pixels */
"  bXbX        IXIXIX      GXhXhXhXhXhXGX      VXVXVX                          CXCXCX      dXCXCXCXCXCXdX      nXnXnX            ",
"  bXbXbX        IXIXIX      sXsXsXsXsX      VXVXVX      jXjXjX  BXBXBX  xX      CXCXCX      UXUXUXUXUX      nXnXnX        JX    ",
"  bXbXbX  lX                                                    BXBXBX  xXxX                                              JX    ",
"  bXbXbX  lXlX          bX              hX          xX  ZXZXZX          xXxX            nX              CX            lX  JXJX  ",
"  bXbXbX  lXlX  LXLX    bXbXbXbX  hXhXhXhX    BXBX  xX  ZXZXZX  ZXZX  xXxXxX  BXBXBX    nXnXnXnX  CXCXCXCX          lXlX  JXJX  ",
"          lXlX  LXLX      bXbXbX  hXhXhX      BXBX  xX                        BXBXBX      nXnXnX  CXCXCX        LX  lXlX  JXJX  ",
"  fXfXfX  lXlX  LXLXLX      bXbX  hXhX      jX                                      BX      nXnX  CXCX        LXLX  lXlX  JXJX  ",
"  fXfXfX    lX                                                                                              LXLXLX  lXlX        ",
"  fXfXfX  LX    MXMXMX  MX                                                                                          lX    bXbX  ",
"  fXfXfX  LXLX  MXMXMX  MXMXMXMXMXMX                    nXnXnXnXnX  DXDXDX                              MX  MXMXMX    LX  bXbX  ",
"                  MXMX                        PX  DXDX              DXDXDX  gXgX  PX          MXMXMXMXMXMX  MXMXMX  LXLX  bXbX  ",
"  FXFXFX  cXcXcX    MX  kXkXkX            PXPX  DXDXDXDX  DXDXDXDX  DXDX  gXgXgXgX  PXPX                    MXMX          bXbX  ",
"  FXFXFX  cXcXcX  KX    kXkX            PXPX                gXgXgX  gX  gXgXgXgXgX    PXPX          kXkXkX  MX    cXcXcX  bX    ",
"  FXFXFX          KXKX  kX          HXHX  PX    gXgXgXgXgX              gXgXgXgXgX    PX  HXHX        kXkX    KX  cXcXcX        ",
"  FXFXFX  MXMXMX  KXKXKX          HXHXHXHX      gXgXgXgXgX  zX  vXvXvXvX  gXgXgXgX      HXHXHXHX        kX  KXKX            PX  ",
"  FXFXFX  MXMXMX  KXKXKX        mX  HXHXHX  gX              zX  vXvXvXvX            gX  HXHXHX  mX        KXKXKX  MXMXMX  PXPX  ",
"  FXFXFX                      mXmXmX  HXHX  gXgXgX  zXzX    zX            zXzX  gXgXgX  HXHX  mXmXmX      KXKXKX  MXMXMX  PXPX  ",
"  FXFXFX  cX  kXkXkX                    HX  gXgXgX  zXzXzX  zX  NXNXNXNX  zXzX  gXgXgX                                    PXPX  ",
"          cX  kXkXkX        HXHXHXHXHXHX            zXzXzX            zX  zXzX          HXHXHXHXHXHXHX        kXkXkX  cX  PXPX  ",
"  bXbXbX  cX  kXkX        PX  HXHX          zXzXzX  zXzX                  zXzX  zXzXzX          HXHX  PX      kXkXkX  cX        ",
"  bXbXbX                  PXPX      gXgXgX    zXzX  zX                      zX  zXzX    gXgXgX      PXPX        kXkX  cX  JXJX  ",
"  bXbXbX  MXMXMX        PXPX    gX  gXgXgX                  BXBX  BXBX                  gXgXgX  gX    PXPX                JXJX  ",
"  bXbXbX  MXMXMX        PX  nX  gXgX  gX  zX  zXzXzX      BXxXxX  xXxXBX      zXzXzX  zX  gX  gXgX  nX  PX        MXMXMX  JXJX  ",
"  bXbXbX              PX  nXnX  gXgXgX  zXzX  zXzXzX    BXxXxXxX  xXxXxXBX    zXzXzX  zXzX  gXgXgX  nXnX  PX      MXMXMX  JXJX  ",
"  bXbXbX  cXcXcX          nXnX  gXgX  zXzXzX            BX              BX            zXzXzX  gXgX  nXnX                        ",
"          cXcX                      zXzXzXzX                                          zXzXzXzX                    cXcXcX  cXcX  ",
"  iXiXiX  cXcX          CX  gXgXgX  zXzXzX      BXBXjX      jXjXjXjXjX      jXBXBX      zXzXzX  gXgXgX  CX          cXcX  cXcX  ",
"  iXiXiX              CXCX  gXgXgX  zXzXzX    BXBXBX      jXxXxXxXxXxXjX      BXBXBX    zXzXzX  gXgXgX  CXCX        cXcX  cXcX  ",
"  iXiXiX  LXLX        CXCX  gXgXgX  zXzX    BXBXBXBX    jXxXZXaXaXaXZXxXjX    BXBXBXBX    zXzX  gXgXgX  CXCX              cXcX  ",
"                                            jXjXjXjX    jXxXaXaXaXaXaXxXjX    jXjXjXjX                              LXLX  cXcX  ",
"  iXiXiX  LXLX        gXgXgXgXgX  vXvXvX                jXxXaXaXaXaXaXxXjX                vXvXvX  gXgXgXgXgX        LXLX  cXcX  ",
"          LXLX        gXgXgXgXgX  vXvXvX    SXSXSXSX    jXxXZXaXaXaXZXxXjX    SXSXSXSX    vXvXvX  gXgXgXgXgX              cXcX  ",
"  JXJXJX              gXgXgXgXgX  vXvXvX      jXjXjX      jXxXxXxXxXxXjX      jXjXjX      vXvXvX  gXgXgXgXgX                    ",
"  JXJXJX  cXcX                    vXvXvXvX      jXjXjX      jXjXjXjXjX      jXjXjX      vXvXvXvX                    cXcX  fXfX  ",
"  JXJXJX  cXcX          gXgXgXgX  vXvXvXvX                                              vXvXvXvX  gXgXgXgX          cXcX  fXfX  ",
"  JXJXJX  cXcXcX          gXgXgX  vXvXvX  vXvX          SX              SX          vXvX  vXvXvX  gXgXgX          cXcXcX  fXfX  ",
"    JXJX              PX                  vXvXvXvX      SXSXSXSX  SXSXSXSX      vXvXvXvX                  PX              fXfX  ",
"  bX  JX  MXMXMX        PX  DXDXDXDX  gX                  SXSXSX  SXSXSX                  gX  DXDXDXDX  PX        MXMXMX  fXfX  ",
"  bXbX    MXMXMX        PXPX    DX  gXgX  zXzXzXzXzX        SXSX  SXSX        zXzXzXzXzX  gXgX  DX    PXPX        MXMXMX  fXfX  ",
"  bXbXbX                  PXPX      gXgX  zX  zXzXzXzX                      zXzXzXzX  zX  gXgX      PXPX                        ",
"  bXbXbX  cX  kXkX        PX  HXHX          zXzXzXzXzXzX                  zXzXzXzXzXzX          HXHX  PX        kXkX  cX  bXbX  ",
"  bXbXbX  cX  kXkXkX        HXHXHXHXHXHXHX                NX  zXzX  NXNX                HXHXHXHXHXHXHX        kXkXkX  cX  bXbX  ",
"  bXbXbX  cX  kXkXkX                        vXvXvXvXvX  NXNX  zXzX  NXNXNX  vXvXvXvXgX                        kXkXkX  cX  bXbX  ",
"                              mXmXmX  HXHX  vXvXvXvX    NXNX  zXzX  NXNXNX    vXvXvXgX  HXHX  mXmXmX                            ",
"  fXfXfX  MXMXMX  KXKXKX        mX  HXHXHX          zX  NXNX  zXzX  NXNXNX  zX      gX  HXHXHX  mX        KXKXKX  MXMXMX  JX    ",
"  fXfXfX  MXMXMX  KXKXKX          HXHXHXHX    zXzXzXzX                      zXzXzXzX    HXHXHXHX          KXKXKX  MXMXMX  JX    ",
"  fXfXfX          KXKX  kX          HXHX  PX  zXzXzXzX  vXvXvXvX  vXvXvXvX  zXzXzX    PX  HXHX          kX  KXKX          JXJX  ",
"  fXfXfX  cXcXcX  KX    kXkX            PXPX    zXzXzX  vXvXvXvX  vXvXvXvX  zXzX      PXPX            kXkX    KX  cXcXcX  JXJX  ",
"          cXcXcX    MX  kXkXkX            PXPX                                  gX  PXPX            kXkXkX  MX    cXcXcX  JXJX  ",
"  FXFXFX          MXMX                        PX    gXgXgXgXgXgXgXgXgX  DXDXDXgX  PX                        MXMX          JXJX  ",
"  FXFXFX  LXLX  MXMXMX  MXMXMXMXMXMX                  gXgXgXgXgXnX  DXDXDX                    MXMXMXMXMXMX  MXMXMX  LXLX        ",
"  FXFXFX  LX    MXMXMX                                                                                  MX  MXMXMX    LX  bXbX  ",
"  FXFXFX    lX                                                                                                      lX    bXbX  ",
"  FXFXFX  lXlX  LXLXLX      IXIX  hXhX                                                      CXCX  CXCX      LXLXLX  lXlX  bXbX  ",
"  FXFXFX  lXlX  LXLX      IXo o   bXbXhX                                                  CXnXnX  nXnXCX      LXLX  lXlX  bXbX  ",
"  FXFXFX  lXlX  LXLX    IXo o o   bXbXIXhX    BX  xXxX                      BXBXBXBX    CXnXnXnX  nXnXCXCX    LXLX  lXlX  bX    ",
"          lXlX          IX              hX          xXxX  ZXZX  ZXZX  xXxX  BX          CX              CX          lXlX        ",
"  bXbXbX  lX                                          xX        ZXZX  xXxX                                            lX    PX  ",
"  bXbXbX        VXVXAX      sXsXsXsXsX      hXhXhX        BXBX        xXxX      nXnXCX      UXUXUXUXUX      CXCXCX        PXPX  ",
"  bXbXbX      VXVXVX      GXhXhXhXhXhXGX      hXhXhX      BXBX  BXBX  xX      nXnXnX      dXCXCXCXCXCXdX      CXCXCX      PXPX  ",
"  bXbXbX    VXVXVXVX    sXhXIXVXVXVXIXhXsX    hXhXhXhX    BXBX              nXnXnXnX    UXCXCXnXnXnXCXCXUX    CXCXCXCX    PXPX  ",
"  bXbXbX    AXAXAXAX    sXhXVXo o o VXhXsX    hXhXhXhX          SXSXSXSX    CXCXCXCX    UXCXnXnXnXnXnXCXUX    CXCXCXCX    PXPX  ",
"  bXbXbX                sXhXVXo o o VXhXsX                pXpX  SXSXSXSX                UXCXnXnXnXnXnXCXUX                PXPX  ",
"            hXhXhXhX    sXhXIXVXVXVXIXhXsX    VXVXVXVX                      CXCXCXCX    UXCXCXnXnXnXCXCXUX    nXnXnXnX          "
};
